# xmcd
#
# Track frame offsets: 
#        150
#        20621
#        28668
#        42570
#        61221
#        70549
#        84823
#        98526
#        111296
#        127756
#        152123
#
# Disc length: 2352 seconds
#
# Revision: 0
# Processed by: cddbd v1.5.2PL0 Copyright (c) Steve Scherf et al.
# Submitted via: ExactAudioCopyFreeDBPlugin 1.0
#
DISCID=7e092e0b
DTITLE=Lise and Gertrud - Live På Nalen
DYEAR=2014
DGENRE=Acoustic
TTITLE0=help
TTITLE1=Born To Fight
TTITLE2=Lyxliv
TTITLE3=The 59th song
TTITLE4=När skal jeg få vita
TTITLE5=50 ways to leave your lover
TTITLE6=Elenor Rigby
TTITLE7=Lives in Balance
TTITLE8=Come together
TTITLE9=Breakfast in America
TTITLE10=Why Worry
EXTD=
EXTT0=
EXTT1=
EXTT2=
EXTT3=
EXTT4=
EXTT5=
EXTT6=
EXTT7=
EXTT8=
EXTT9=
EXTT10=
PLAYORDER=
